REM DIRINDEX 1\3,1\4,1\5,1\6,1\2\7,1\2\8,1\2\9,1\10
REM DIRNAME cjc056,folder01,folder02,folder03,folder04,folder05,folder06,folder07,folder08,folder09
TITLE ""
FILE "1-06 Level 1-050-061.mp3" MP3
  TRACK 01 AUDIO
    TITLE "0:"
    INDEX 01 00:00:00
  TRACK 02 AUDIO
    TITLE "7:cjc056_0160"
    INDEX 01 00:00:05
  TRACK 03 AUDIO
    TITLE "0:"
    INDEX 01 00:01:07
  TRACK 04 AUDIO
    TITLE "8:cjc056_0161"
    INDEX 01 00:01:21
  TRACK 05 AUDIO
    TITLE "0:"
    INDEX 01 00:02:42
  TRACK 06 AUDIO
    TITLE "9:cjc056_0162"
    INDEX 01 00:02:53
  TRACK 07 AUDIO
    TITLE "0:"
    INDEX 01 00:04:23
  TRACK 08 AUDIO
    TITLE "7:cjc056_0163"
    INDEX 01 00:05:12
  TRACK 09 AUDIO
    TITLE "0:"
    INDEX 01 00:05:69
  TRACK 10 AUDIO
    TITLE "8:cjc056_0164"
    INDEX 01 00:06:24
  TRACK 11 AUDIO
    TITLE "0:"
    INDEX 01 00:07:11
  TRACK 12 AUDIO
    TITLE "9:cjc056_0165"
    INDEX 01 00:07:25
  TRACK 13 AUDIO
    TITLE "0:"
    INDEX 01 00:08:44
  TRACK 14 AUDIO
    TITLE "7:cjc056_0166"
    INDEX 01 00:09:36
  TRACK 15 AUDIO
    TITLE "0:"
    INDEX 01 00:10:33
  TRACK 16 AUDIO
    TITLE "8:cjc056_0167"
    INDEX 01 00:10:45
  TRACK 17 AUDIO
    TITLE "0:"
    INDEX 01 00:11:46
  TRACK 18 AUDIO
    TITLE "9:cjc056_0168"
    INDEX 01 00:11:58
  TRACK 19 AUDIO
    TITLE "0:"
    INDEX 01 00:13:12
  TRACK 20 AUDIO
    TITLE "8:cjc056_0169"
    INDEX 01 00:13:39
  TRACK 21 AUDIO
    TITLE "0:"
    INDEX 01 00:14:37
  TRACK 22 AUDIO
    TITLE "9:cjc056_0170"
    INDEX 01 00:14:51
  TRACK 23 AUDIO
    TITLE "0:"
    INDEX 01 00:16:08
  TRACK 24 AUDIO
    TITLE "7:cjc056_0171"
    INDEX 01 00:16:59
  TRACK 25 AUDIO
    TITLE "0:"
    INDEX 01 00:17:57
  TRACK 26 AUDIO
    TITLE "8:cjc056_0172"
    INDEX 01 00:17:70
  TRACK 27 AUDIO
    TITLE "0:"
    INDEX 01 00:18:70
  TRACK 28 AUDIO
    TITLE "9:cjc056_0173"
    INDEX 01 00:19:07
  TRACK 29 AUDIO
    TITLE "0:"
    INDEX 01 00:22:01
  TRACK 30 AUDIO
    TITLE "7:cjc056_0174"
    INDEX 01 00:22:48
  TRACK 31 AUDIO
    TITLE "0:"
    INDEX 01 00:23:46
  TRACK 32 AUDIO
    TITLE "8:cjc056_0175"
    INDEX 01 00:23:57
  TRACK 33 AUDIO
    TITLE "0:"
    INDEX 01 00:25:09
  TRACK 34 AUDIO
    TITLE "9:cjc056_0176"
    INDEX 01 00:25:23
  TRACK 35 AUDIO
    TITLE "0:"
    INDEX 01 00:27:18
  TRACK 36 AUDIO
    TITLE "7:cjc056_0177"
    INDEX 01 00:27:69
  TRACK 37 AUDIO
    TITLE "0:"
    INDEX 01 00:28:68
  TRACK 38 AUDIO
    TITLE "8:cjc056_0178"
    INDEX 01 00:29:05
  TRACK 39 AUDIO
    TITLE "0:"
    INDEX 01 00:30:30
  TRACK 40 AUDIO
    TITLE "9:cjc056_0179"
    INDEX 01 00:30:42
  TRACK 41 AUDIO
    TITLE "0:"
    INDEX 01 00:32:11
  TRACK 42 AUDIO
    TITLE "7:cjc056_0180"
    INDEX 01 00:32:62
  TRACK 43 AUDIO
    TITLE "0:"
    INDEX 01 00:33:71
  TRACK 44 AUDIO
    TITLE "8:cjc056_0181"
    INDEX 01 00:34:10
  TRACK 45 AUDIO
    TITLE "0:"
    INDEX 01 00:35:31
  TRACK 46 AUDIO
    TITLE "9:cjc056_0182"
    INDEX 01 00:35:45
  TRACK 47 AUDIO
    TITLE "0:"
    INDEX 01 00:37:03
  TRACK 48 AUDIO
    TITLE "7:cjc056_0183"
    INDEX 01 00:37:56
  TRACK 49 AUDIO
    TITLE "0:"
    INDEX 01 00:38:51
  TRACK 50 AUDIO
    TITLE "8:cjc056_0184"
    INDEX 01 00:38:65
  TRACK 51 AUDIO
    TITLE "0:"
    INDEX 01 00:39:58
  TRACK 52 AUDIO
    TITLE "9:cjc056_0185"
    INDEX 01 00:39:70
  TRACK 53 AUDIO
    TITLE "0:"
    INDEX 01 00:41:47
  TRACK 54 AUDIO
    TITLE "7:cjc056_0186"
    INDEX 01 00:42:25
  TRACK 55 AUDIO
    TITLE "0:"
    INDEX 01 00:43:39
  TRACK 56 AUDIO
    TITLE "8:cjc056_0187"
    INDEX 01 00:43:50
  TRACK 57 AUDIO
    TITLE "0:"
    INDEX 01 00:44:56
  TRACK 58 AUDIO
    TITLE "9:cjc056_0188"
    INDEX 01 00:44:69
  TRACK 59 AUDIO
    TITLE "0:"
    INDEX 01 00:46:35
  TRACK 60 AUDIO
    TITLE "7:cjc056_0189"
    INDEX 01 00:47:09
  TRACK 61 AUDIO
    TITLE "0:"
    INDEX 01 00:48:26
  TRACK 62 AUDIO
    TITLE "8:cjc056_0190"
    INDEX 01 00:48:40
  TRACK 63 AUDIO
    TITLE "0:"
    INDEX 01 00:49:45
  TRACK 64 AUDIO
    TITLE "9:cjc056_0191"
    INDEX 01 00:49:61
  TRACK 65 AUDIO
    TITLE "0:"
    INDEX 01 00:51:50
  TRACK 66 AUDIO
    TITLE "8:cjc056_0192"
    INDEX 01 00:52:02
  TRACK 67 AUDIO
    TITLE "0:"
    INDEX 01 00:53:15
  TRACK 68 AUDIO
    TITLE "9:cjc056_0193"
    INDEX 01 00:53:29
  TRACK 69 AUDIO
    TITLE "0:"
    INDEX 01 00:54:68
  TRACK 70 AUDIO
    TITLE "7:cjc056_0194"
    INDEX 01 00:55:44
  TRACK 71 AUDIO
    TITLE "0:"
    INDEX 01 00:56:65
  TRACK 72 AUDIO
    TITLE "8:cjc056_0195"
    INDEX 01 00:57:01
  TRACK 73 AUDIO
    TITLE "0:"
    INDEX 01 00:58:44
  TRACK 74 AUDIO
    TITLE "9:cjc056_0196"
    INDEX 01 00:58:58
  TRACK 75 AUDIO
    TITLE "0:"
    INDEX 01 01:01:17
  TRACK 76 AUDIO
    TITLE "7:cjc056_0197"
    INDEX 01 01:01:68
  TRACK 77 AUDIO
    TITLE "0:"
    INDEX 01 01:03:02
  TRACK 78 AUDIO
    TITLE "8:cjc056_0198"
    INDEX 01 01:03:12
  TRACK 79 AUDIO
    TITLE "0:"
    INDEX 01 01:05:54
  TRACK 80 AUDIO
    TITLE "9:cjc056_0199"
    INDEX 01 01:05:68
  TRACK 81 AUDIO
    TITLE "0:"
    INDEX 01 01:07:74
